<mxfile host="app.diagrams.net" modified="2020-10-30T09:21:39.221Z" agent="5.0 (Windows)" etag="iK0RN8U7Vid9p8OGu-LH" version="13.8.7" type="github">
  <diagram id="C5RBs43oDa-KdzZeNtuy" name="Page-1">
    <mxGraphModel dx="2249" dy="791" grid="1" gridSize="10" guides="1" tooltips="1" connect="1" arrows="1" fold="1" page="1" pageScale="1" pageWidth="827" pageHeight="1169" math="0" shadow="0">
      <root>
        <mxCell id="WIyWlLk6GJQsqaUBKTNV-0" />
        <mxCell id="WIyWlLk6GJQsqaUBKTNV-1" parent="WIyWlLk6GJQsqaUBKTNV-0" />
        <mxCell id="K2p3zmv9QWP2M39sGCe7-2" value="&lt;p style=&quot;margin: 0px ; margin-top: 4px ; margin-left: 5px ; text-align: left&quot;&gt;&lt;b&gt;Diagram Class&lt;/b&gt;&lt;/p&gt;" style="html=1;shape=mxgraph.sysml.package;overflow=fill;labelX=95;align=left;spacingLeft=5;verticalAlign=top;spacingTop=-3;" vertex="1" parent="WIyWlLk6GJQsqaUBKTNV-1">
          <mxGeometry x="-5" width="835" height="640" as="geometry" />
        </mxCell>
        <mxCell id="K2p3zmv9QWP2M39sGCe7-3" value="Form1" style="swimlane;fontStyle=1;align=center;verticalAlign=top;childLayout=stackLayout;horizontal=1;startSize=40;horizontalStack=0;resizeParent=1;resizeParentMax=0;resizeLast=0;collapsible=1;marginBottom=0;" vertex="1" parent="WIyWlLk6GJQsqaUBKTNV-1">
          <mxGeometry x="320" y="40" width="160" height="110" as="geometry">
            <mxRectangle x="310" y="50" width="90" height="30" as="alternateBounds" />
          </mxGeometry>
        </mxCell>
        <mxCell id="K2p3zmv9QWP2M39sGCe7-4" value="" style="line;strokeWidth=1;fillColor=none;align=left;verticalAlign=middle;spacingTop=-1;spacingLeft=3;spacingRight=3;rotatable=0;labelPosition=right;points=[];portConstraint=eastwest;" vertex="1" parent="K2p3zmv9QWP2M39sGCe7-3">
          <mxGeometry y="40" width="160" height="20" as="geometry" />
        </mxCell>
        <mxCell id="K2p3zmv9QWP2M39sGCe7-5" value="command1Click()&#xa;command2Click()" style="text;strokeColor=none;fillColor=none;align=left;verticalAlign=top;spacingLeft=4;spacingRight=4;overflow=hidden;rotatable=0;points=[[0,0.5],[1,0.5]];portConstraint=eastwest;" vertex="1" parent="K2p3zmv9QWP2M39sGCe7-3">
          <mxGeometry y="60" width="160" height="50" as="geometry" />
        </mxCell>
        <mxCell id="K2p3zmv9QWP2M39sGCe7-6" value="" style="endArrow=open;html=1;endFill=0;dashed=1;exitX=0.306;exitY=1;exitDx=0;exitDy=0;exitPerimeter=0;entryX=0.5;entryY=0;entryDx=0;entryDy=0;strokeWidth=1;" edge="1" parent="WIyWlLk6GJQsqaUBKTNV-1">
          <mxGeometry width="50" height="50" relative="1" as="geometry">
            <mxPoint x="368.96000000000004" y="150" as="sourcePoint" />
            <mxPoint x="320" y="300" as="targetPoint" />
            <Array as="points" />
          </mxGeometry>
        </mxCell>
        <mxCell id="K2p3zmv9QWP2M39sGCe7-7" value="" style="endArrow=open;html=1;strokeWidth=1;entryX=0.304;entryY=0;entryDx=0;entryDy=0;entryPerimeter=0;endFill=0;dashed=1;" edge="1" parent="WIyWlLk6GJQsqaUBKTNV-1">
          <mxGeometry width="50" height="50" relative="1" as="geometry">
            <mxPoint x="421" y="150" as="sourcePoint" />
            <mxPoint x="491.68000000000006" y="301" as="targetPoint" />
          </mxGeometry>
        </mxCell>
        <mxCell id="K2p3zmv9QWP2M39sGCe7-8" value="Author" style="swimlane;fontStyle=1;childLayout=stackLayout;horizontal=1;startSize=26;fillColor=none;horizontalStack=0;resizeParent=1;resizeParentMax=0;resizeLast=0;collapsible=1;marginBottom=0;" vertex="1" parent="WIyWlLk6GJQsqaUBKTNV-1">
          <mxGeometry x="250" y="300" width="140" height="240" as="geometry" />
        </mxCell>
        <mxCell id="K2p3zmv9QWP2M39sGCe7-9" value="eOf()&#xa;getOne()&#xa;query()&#xa;recordSet()&#xa;name()&#xa;iD()&#xa;fName()&#xa;lName()&#xa;phone()&#xa;address()&#xa;city()&#xa;state()&#xa;zip()&#xa;contract()" style="text;strokeColor=none;fillColor=none;align=left;verticalAlign=top;spacingLeft=4;spacingRight=4;overflow=hidden;rotatable=0;points=[[0,0.5],[1,0.5]];portConstraint=eastwest;" vertex="1" parent="K2p3zmv9QWP2M39sGCe7-8">
          <mxGeometry y="26" width="140" height="214" as="geometry" />
        </mxCell>
        <mxCell id="K2p3zmv9QWP2M39sGCe7-10" value="Authors" style="swimlane;fontStyle=1;childLayout=stackLayout;horizontal=1;startSize=26;fillColor=none;horizontalStack=0;resizeParent=1;resizeParentMax=0;resizeLast=0;collapsible=1;marginBottom=0;" vertex="1" parent="WIyWlLk6GJQsqaUBKTNV-1">
          <mxGeometry x="440" y="301" width="170" height="320" as="geometry" />
        </mxCell>
        <mxCell id="K2p3zmv9QWP2M39sGCe7-11" value="addNew()&#xa;bOf()&#xa;e0f()&#xa;getAll()&#xa;moveFirst()&#xa;moveLast()&#xa;moveNext()&#xa;movePrevious()&#xa;query()&#xa;recordSet()&#xa;name()&#xa;iD()&#xa;fName&#xa;lName&#xa;phone()&#xa;address()&#xa;city()&#xa;zip()&#xa;contract()&#xa;getNew()" style="text;strokeColor=none;fillColor=none;align=left;verticalAlign=top;spacingLeft=4;spacingRight=4;overflow=hidden;rotatable=0;points=[[0,0.5],[1,0.5]];portConstraint=eastwest;" vertex="1" parent="K2p3zmv9QWP2M39sGCe7-10">
          <mxGeometry y="26" width="170" height="294" as="geometry" />
        </mxCell>
      </root>
    </mxGraphModel>
  </diagram>
</mxfile>
